<svg width="21" height="20" viewBox="0 0 21 20" fill="none" xmlns="http://www.w3.org/2000/svg">
<path fill-rule="evenodd" clip-rule="evenodd" d="M2.8798 2.75719C2.79028 2.75044 2.66604 2.74984 2.43306 2.74984H0.916667C0.410406 2.74984 0 2.33944 0 1.83317C0 1.32691 0.410406 0.916508 0.916667 0.916508H2.43306C2.4417 0.916508 2.45034 0.916507 2.45898 0.916506C2.65575 0.916482 2.85058 0.916458 3.01755 0.929038C3.20335 0.943037 3.41921 0.975919 3.64252 1.07553C3.9568 1.21572 4.22528 1.44154 4.41724 1.72715C4.55364 1.93009 4.62303 2.13713 4.66865 2.31778C4.70966 2.48012 4.74301 2.67207 4.77671 2.86594C4.77818 2.87445 4.77966 2.88296 4.78115 2.89148L4.99956 4.14738L16.9291 4.5005C17.3965 4.51433 17.8005 4.52627 18.1332 4.56291C18.4849 4.60164 18.8336 4.67447 19.168 4.85265C19.6748 5.12265 20.0844 5.54451 20.3393 6.05907C20.5075 6.39866 20.5699 6.74931 20.5982 7.10197C20.625 7.43562 20.625 7.83978 20.625 8.30746V8.37506C20.625 8.81458 20.625 9.19583 20.6004 9.51198C20.5743 9.84726 20.5167 10.1803 20.3631 10.5066C20.1293 11.0032 19.7523 11.4186 19.2804 11.6991C18.9704 11.8834 18.6445 11.9728 18.3133 12.0311C18.001 12.086 17.6216 12.1228 17.1841 12.1651L8.26136 13.0286C7.81293 13.072 7.4244 13.1096 7.10024 13.1153C6.75679 13.1213 6.41246 13.0947 6.06676 12.9677C5.54832 12.7772 5.09924 12.4351 4.778 11.9858C4.5638 11.6862 4.44668 11.3613 4.36134 11.0286C4.28079 10.7145 4.21392 10.3299 4.13675 9.8861L2.97492 3.2056C2.935 2.97607 2.91312 2.85377 2.89114 2.76672C2.89036 2.76363 2.8896 2.7607 2.88887 2.75791C2.88601 2.75767 2.88298 2.75743 2.8798 2.75719ZM5.32019 5.99101L5.93719 9.53876C6.02181 10.0253 6.07681 10.3377 6.13719 10.5731C6.19478 10.7976 6.24033 10.8789 6.26935 10.9195C6.37643 11.0692 6.52612 11.1833 6.69894 11.2468C6.74577 11.264 6.83624 11.2863 7.06799 11.2822C7.31098 11.278 7.62676 11.2481 8.11829 11.2005L16.9745 10.3435C17.4543 10.297 17.762 10.2666 17.9956 10.2255C18.2181 10.1863 18.3011 10.1485 18.3435 10.1233C18.5008 10.0298 18.6264 9.89132 18.7044 9.72577C18.7254 9.68118 18.7551 9.59487 18.7726 9.36965C18.791 9.13322 18.7917 8.82402 18.7917 8.34197C18.7917 7.83001 18.791 7.50013 18.7708 7.24867C18.7515 7.00804 18.7187 6.91783 18.6964 6.87283C18.6115 6.70131 18.4749 6.56069 18.306 6.47069C18.2617 6.44708 18.1725 6.41165 17.9325 6.38523C17.6818 6.35761 17.3521 6.34716 16.8403 6.33201L5.32019 5.99101Z" fill="#424551"/>
<path fill-rule="evenodd" clip-rule="evenodd" d="M7.79167 16.0415C7.28541 16.0415 6.875 16.4519 6.875 16.9582C6.875 17.4644 7.28541 17.8748 7.79167 17.8748C8.29793 17.8748 8.70833 17.4644 8.70833 16.9582C8.70833 16.4519 8.29793 16.0415 7.79167 16.0415ZM5.04167 16.9582C5.04167 15.4394 6.27288 14.2082 7.79167 14.2082C9.31045 14.2082 10.5417 15.4394 10.5417 16.9582C10.5417 18.477 9.31045 19.7082 7.79167 19.7082C6.27288 19.7082 5.04167 18.477 5.04167 16.9582Z" fill="#424551"/>
<path fill-rule="evenodd" clip-rule="evenodd" d="M16.5 16.0415C15.9937 16.0415 15.5833 16.4519 15.5833 16.9582C15.5833 17.4644 15.9937 17.8748 16.5 17.8748C17.0063 17.8748 17.4167 17.4644 17.4167 16.9582C17.4167 16.4519 17.0063 16.0415 16.5 16.0415ZM13.75 16.9582C13.75 15.4394 14.9812 14.2082 16.5 14.2082C18.0188 14.2082 19.25 15.4394 19.25 16.9582C19.25 18.477 18.0188 19.7082 16.5 19.7082C14.9812 19.7082 13.75 18.477 13.75 16.9582Z" fill="#424551"/>
</svg>
