<svg width="20" height="20" viewBox="0 0 20 20" fill="none" xmlns="http://www.w3.org/2000/svg">
<path fill-rule="evenodd" clip-rule="evenodd" d="M9.99907 16.5898C6.16651 14.407 4.02897 12.2374 2.99533 10.355C1.9374 8.42834 2.02971 6.80561 2.61675 5.65391C3.8234 3.28663 7.25473 2.52965 9.34537 5.1738L9.99902 6.00051L10.6527 5.17384C12.7437 2.52958 16.1752 3.28669 17.3819 5.6539C17.9689 6.80559 18.0612 8.42831 17.0032 10.355C15.9694 12.2374 13.8318 14.407 9.99907 16.5898ZM9.9991 3.42206C7.05809 0.627386 2.71943 1.78242 1.13186 4.89703C0.260575 6.60637 0.248673 8.81564 1.53441 11.1572C2.80875 13.478 5.3495 15.9276 9.59594 18.2747L9.99905 18.4975L10.4022 18.2747C14.6488 15.9276 17.1896 13.478 18.4641 11.1572C19.7499 8.81566 19.738 6.60638 18.8667 4.89703C17.2791 1.78236 12.9404 0.627429 9.9991 3.42206Z" fill="#424551"/>
</svg>
