<svg width="16" height="16" viewBox="0 0 16 16" fill="none" xmlns="http://www.w3.org/2000/svg">
<g clip-path="url(#clip0_49_9324)">
<path fill-rule="evenodd" clip-rule="evenodd" d="M7.25065 2.16683C4.4432 2.16683 2.16732 4.44272 2.16732 7.25016C2.16732 10.0576 4.4432 12.3335 7.25065 12.3335C8.65324 12.3335 9.92209 11.7663 10.8425 10.8472C11.7647 9.92637 12.334 8.65539 12.334 7.25016C12.334 4.44272 10.0581 2.16683 7.25065 2.16683ZM0.833984 7.25016C0.833984 3.70634 3.70682 0.833496 7.25065 0.833496C10.7945 0.833496 13.6673 3.70634 13.6673 7.25016C13.6673 8.78297 13.1292 10.191 12.2326 11.2944L14.9716 14.0283C15.2322 14.2884 15.2326 14.7105 14.9725 14.9711C14.7124 15.2317 14.2903 15.2321 14.0297 14.972L11.2893 12.2367C10.1868 13.1305 8.78088 13.6668 7.25065 13.6668C3.70682 13.6668 0.833984 10.794 0.833984 7.25016Z" fill="#424551"/>
</g>
<defs>
<clipPath id="clip0_49_9324">
<rect width="16" height="16" fill="white"/>
</clipPath>
</defs>
</svg>
