<svg width="20" height="12" viewBox="0 0 20 12" fill="none" xmlns="http://www.w3.org/2000/svg">
<g clip-path="url(#clip0_49_9345)">
<path d="M20 0H0V12H20V0Z" fill="#B22234"/>
<path fill-rule="evenodd" clip-rule="evenodd" d="M20 1.74575H0V0.800293H20V1.74575ZM0 2.6912H20V3.63666H0V2.6912ZM20 5.52757H0V4.58211H20V5.52757ZM0 6.47302H20V7.41847H0V6.47302ZM20 9.30938H0V8.36393H20V9.30938ZM0 10.2548H20V11.2003H0V10.2548Z" fill="white"/>
<path d="M9.12 0H0V6.46154H9.12V0Z" fill="#3C3B6E"/>
<path d="M0.759362 0.221191L0.976391 0.889136L0.408203 0.476324H1.11052L0.542334 0.889136L0.759362 0.221191Z" fill="white"/>
<path d="M2.274 0.221191L2.49103 0.889136L1.92284 0.476324H2.62516L2.05697 0.889136L2.274 0.221191Z" fill="white"/>
<path d="M3.78864 0.221191L4.00567 0.889136L3.43748 0.476324H4.1398L3.57161 0.889136L3.78864 0.221191Z" fill="white"/>
<path d="M8.33256 0.221191L8.54959 0.889136L7.9814 0.476324H8.68372L8.11553 0.889136L8.33256 0.221191Z" fill="white"/>
<path d="M6.81792 0.221191L7.03495 0.889136L6.46676 0.476324H7.16908L6.60089 0.889136L6.81792 0.221191Z" fill="white"/>
<path d="M5.30328 0.221191L5.52031 0.889136L4.95212 0.476324H5.65444L5.08625 0.889136L5.30328 0.221191Z" fill="white"/>
<path d="M0.759362 1.55709L0.976391 2.22504L0.408203 1.81222H1.11052L0.542334 2.22504L0.759362 1.55709Z" fill="white"/>
<path d="M2.274 1.55709L2.49103 2.22504L1.92284 1.81222H2.62516L2.05697 2.22504L2.274 1.55709Z" fill="white"/>
<path d="M3.78864 1.55709L4.00567 2.22504L3.43748 1.81222H4.1398L3.57161 2.22504L3.78864 1.55709Z" fill="white"/>
<path d="M8.33256 1.55709L8.54959 2.22504L7.9814 1.81222H8.68372L8.11553 2.22504L8.33256 1.55709Z" fill="white"/>
<path d="M6.81792 1.55709L7.03495 2.22504L6.46676 1.81222H7.16908L6.60089 2.22504L6.81792 1.55709Z" fill="white"/>
<path d="M5.30328 1.55709L5.52031 2.22504L4.95212 1.81222H5.65444L5.08625 2.22504L5.30328 1.55709Z" fill="white"/>
<path d="M0.759362 2.89299L0.976391 3.56094L0.408203 3.14813H1.11052L0.542334 3.56094L0.759362 2.89299Z" fill="white"/>
<path d="M2.274 2.89299L2.49103 3.56094L1.92284 3.14813H2.62516L2.05697 3.56094L2.274 2.89299Z" fill="white"/>
<path d="M3.78864 2.89299L4.00567 3.56094L3.43748 3.14813H4.1398L3.57161 3.56094L3.78864 2.89299Z" fill="white"/>
<path d="M8.33256 2.89299L8.54959 3.56094L7.9814 3.14813H8.68372L8.11553 3.56094L8.33256 2.89299Z" fill="white"/>
<path d="M6.81792 2.89299L7.03495 3.56094L6.46676 3.14813H7.16908L6.60089 3.56094L6.81792 2.89299Z" fill="white"/>
<path d="M5.30328 2.89299L5.52031 3.56094L4.95212 3.14813H5.65444L5.08625 3.56094L5.30328 2.89299Z" fill="white"/>
<path d="M0.759362 4.2289L0.976391 4.89684L0.408203 4.48403H1.11052L0.542334 4.89684L0.759362 4.2289Z" fill="white"/>
<path d="M2.274 4.2289L2.49103 4.89684L1.92284 4.48403H2.62516L2.05697 4.89684L2.274 4.2289Z" fill="white"/>
<path d="M3.78864 4.2289L4.00567 4.89684L3.43748 4.48403H4.1398L3.57161 4.89684L3.78864 4.2289Z" fill="white"/>
<path d="M8.33256 4.2289L8.54959 4.89684L7.9814 4.48403H8.68372L8.11553 4.89684L8.33256 4.2289Z" fill="white"/>
<path d="M6.81792 4.2289L7.03495 4.89684L6.46676 4.48403H7.16908L6.60089 4.89684L6.81792 4.2289Z" fill="white"/>
<path d="M5.30328 4.2289L5.52031 4.89684L4.95212 4.48403H5.65444L5.08625 4.89684L5.30328 4.2289Z" fill="white"/>
<path d="M0.759362 5.5648L0.976391 6.23274L0.408203 5.81993H1.11052L0.542334 6.23274L0.759362 5.5648Z" fill="white"/>
<path d="M2.274 5.5648L2.49103 6.23274L1.92284 5.81993H2.62516L2.05697 6.23274L2.274 5.5648Z" fill="white"/>
<path d="M3.78864 5.5648L4.00567 6.23274L3.43748 5.81993H4.1398L3.57161 6.23274L3.78864 5.5648Z" fill="white"/>
<path d="M8.33256 5.5648L8.54959 6.23274L7.9814 5.81993H8.68372L8.11553 6.23274L8.33256 5.5648Z" fill="white"/>
<path d="M6.81792 5.5648L7.03495 6.23274L6.46676 5.81993H7.16908L6.60089 6.23274L6.81792 5.5648Z" fill="white"/>
<path d="M5.30328 5.5648L5.52031 6.23274L4.95212 5.81993H5.65444L5.08625 6.23274L5.30328 5.5648Z" fill="white"/>
<path d="M1.51358 0.889142L1.73061 1.55709L1.16242 1.14427H1.86474L1.29655 1.55709L1.51358 0.889142Z" fill="white"/>
<path d="M3.02822 0.889142L3.24525 1.55709L2.67706 1.14427H3.37938L2.81119 1.55709L3.02822 0.889142Z" fill="white"/>
<path d="M4.54286 0.889142L4.75989 1.55709L4.1917 1.14427H4.89402L4.32583 1.55709L4.54286 0.889142Z" fill="white"/>
<path d="M7.57214 0.889142L7.78917 1.55709L7.22098 1.14427H7.9233L7.35511 1.55709L7.57214 0.889142Z" fill="white"/>
<path d="M6.0575 0.889142L6.27453 1.55709L5.70634 1.14427H6.40866L5.84047 1.55709L6.0575 0.889142Z" fill="white"/>
<path d="M1.51358 2.22504L1.73061 2.89299L1.16242 2.48018H1.86474L1.29655 2.89299L1.51358 2.22504Z" fill="white"/>
<path d="M3.02822 2.22504L3.24525 2.89299L2.67706 2.48018H3.37938L2.81119 2.89299L3.02822 2.22504Z" fill="white"/>
<path d="M4.54286 2.22504L4.75989 2.89299L4.1917 2.48018H4.89402L4.32583 2.89299L4.54286 2.22504Z" fill="white"/>
<path d="M7.57214 2.22504L7.78917 2.89299L7.22098 2.48018H7.9233L7.35511 2.89299L7.57214 2.22504Z" fill="white"/>
<path d="M6.0575 2.22504L6.27453 2.89299L5.70634 2.48018H6.40866L5.84047 2.89299L6.0575 2.22504Z" fill="white"/>
<path d="M1.51358 3.56094L1.73061 4.22889L1.16242 3.81608H1.86474L1.29655 4.22889L1.51358 3.56094Z" fill="white"/>
<path d="M3.02822 3.56094L3.24525 4.22889L2.67706 3.81608H3.37938L2.81119 4.22889L3.02822 3.56094Z" fill="white"/>
<path d="M4.54286 3.56094L4.75989 4.22889L4.1917 3.81608H4.89402L4.32583 4.22889L4.54286 3.56094Z" fill="white"/>
<path d="M7.57214 3.56094L7.78917 4.22889L7.22098 3.81608H7.9233L7.35511 4.22889L7.57214 3.56094Z" fill="white"/>
<path d="M6.0575 3.56094L6.27453 4.22889L5.70634 3.81608H6.40866L5.84047 4.22889L6.0575 3.56094Z" fill="white"/>
<path d="M1.51358 4.89685L1.73061 5.56479L1.16242 5.15198H1.86474L1.29655 5.56479L1.51358 4.89685Z" fill="white"/>
<path d="M3.02822 4.89685L3.24525 5.56479L2.67706 5.15198H3.37938L2.81119 5.56479L3.02822 4.89685Z" fill="white"/>
<path d="M4.54286 4.89685L4.75989 5.56479L4.1917 5.15198H4.89402L4.32583 5.56479L4.54286 4.89685Z" fill="white"/>
<path d="M7.57214 4.89685L7.78917 5.56479L7.22098 5.15198H7.9233L7.35511 5.56479L7.57214 4.89685Z" fill="white"/>
<path d="M6.0575 4.89685L6.27453 5.56479L5.70634 5.15198H6.40866L5.84047 5.56479L6.0575 4.89685Z" fill="white"/>
</g>
<defs>
<clipPath id="clip0_49_9345">
<rect width="20" height="12" fill="white"/>
</clipPath>
</defs>
</svg>
