<svg width="14" height="15" viewBox="0 0 14 15" fill="none" xmlns="http://www.w3.org/2000/svg">
<path fill-rule="evenodd" clip-rule="evenodd" d="M7.00055 1.66683C5.71188 1.66683 4.66721 2.7115 4.66721 4.00016C4.66721 5.28883 5.71188 6.3335 7.00055 6.3335C8.28921 6.3335 9.33388 5.28883 9.33388 4.00016C9.33388 2.7115 8.28921 1.66683 7.00055 1.66683ZM3.33388 4.00016C3.33388 1.97512 4.9755 0.333496 7.00055 0.333496C9.02559 0.333496 10.6672 1.97512 10.6672 4.00016C10.6672 6.02521 9.02559 7.66683 7.00055 7.66683C4.9755 7.66683 3.33388 6.02521 3.33388 4.00016Z" fill="white"/>
<path fill-rule="evenodd" clip-rule="evenodd" d="M3.06992 9.66683C2.60771 9.66683 2.24643 9.89189 2.09979 10.2152C1.89681 10.6628 1.71301 11.1956 1.66964 11.7009C1.65025 11.9268 1.74444 12.0933 1.87423 12.1739C2.56033 12.6002 4.15014 13.3335 7.00055 13.3335C9.85095 13.3335 11.4408 12.6002 12.1269 12.1739C12.2567 12.0933 12.3508 11.9268 12.3315 11.7009C12.2881 11.1956 12.1043 10.6628 11.9013 10.2152C11.7547 9.89189 11.3934 9.66683 10.9312 9.66683H3.06992ZM0.885499 9.66453C1.2908 8.77088 2.19582 8.3335 3.06992 8.3335H10.9312C11.8053 8.3335 12.7103 8.77088 13.1156 9.66453C13.3484 10.1778 13.5982 10.8678 13.6599 11.5869C13.7161 12.2417 13.4439 12.9254 12.8304 13.3065C11.9281 13.8671 10.0936 14.6668 7.00055 14.6668C3.90748 14.6668 2.07301 13.8671 1.17066 13.3065C0.557149 12.9254 0.284988 12.2417 0.341191 11.5869C0.40291 10.8678 0.652708 10.1778 0.885499 9.66453Z" fill="white"/>
</svg>
